<svg width="20" height="21" fill="none" xmlns="http://www.w3.org/2000/svg"><path d="M10.194 1.152c0-.259-.182-.487-.394-.395a.905.905 0 00-.44.43L6.982 5.854c-.167.327-.455.55-.784.607l-4.453.766c-.748.13-1.01 1.205-.428 1.755l3.318 3.131c.307.29.451.747.377 1.193l-.868 5.192c-.137.821.619 1.459 1.268 1.07l4.194-2.516a.877.877 0 01.126-.064c.237-.102.461-.322.461-.612V1.152z" fill="#F7F720"/><path d="M10.874 1.233c-.338-.662-1.177-.662-1.515 0L6.983 5.898c-.167.328-.455.551-.784.607l-4.453.767C.998 7.4.736 8.476 1.318 9.026l3.318 3.131c.307.29.451.747.377 1.194l-.868 5.192c-.137.82.619 1.458 1.268 1.069l4.194-2.516a.977.977 0 011.02 0l4.193 2.516c.65.39 1.406-.249 1.268-1.07l-.868-5.191c-.074-.447.07-.904.377-1.194l3.318-3.13c.583-.55.32-1.627-.428-1.755l-4.453-.767c-.329-.056-.617-.28-.784-.607l-2.376-4.665z" stroke="#000" stroke-linejoin="round"/></svg>