<svg width="20" height="21" fill="none" xmlns="http://www.w3.org/2000/svg"><path d="M10.748 1.23c-.333-.663-1.163-.663-1.496 0L6.906 5.897c-.164.327-.449.55-.773.607l-4.397.767c-.738.128-.997 1.205-.422 1.755l3.275 3.132c.303.29.446.748.372 1.194l-.856 5.194c-.136.82.61 1.459 1.251 1.07l4.14-2.517a.954.954 0 011.007 0l4.14 2.516c.641.39 1.388-.248 1.252-1.07l-.856-5.193c-.074-.447.069-.904.372-1.194l3.275-3.132c.575-.55.316-1.627-.422-1.755l-4.397-.767c-.324-.056-.609-.28-.773-.607L10.748 1.23z" fill="#F7F720" stroke="#000" stroke-linejoin="round"/></svg>