<svg width="20" height="21" viewBox="0 0 20 21" fill="none" xmlns="http://www.w3.org/2000/svg">
<path d="M10.1941 1.15173C10.1941 0.893075 10.0121 0.664612 9.80002 0.757104C9.62391 0.833918 9.46628 0.977412 9.35922 1.18759L6.98271 5.85302C6.81602 6.18027 6.52789 6.40359 6.19947 6.46009L1.74573 7.22637C0.997695 7.35507 0.735304 8.43094 1.31787 8.98074L4.63572 12.112C4.94284 12.4018 5.08725 12.859 5.01264 13.3053L4.14474 18.4973C4.00754 19.318 4.76391 19.9557 5.41288 19.5664L9.60664 17.051C9.64767 17.0264 9.68973 17.005 9.73256 16.9867C9.97041 16.8851 10.1941 16.6645 10.1941 16.3752V1.15173Z" fill="#F7F720"/>
<path d="M10.874 1.23299C10.5365 0.57053 9.69668 0.570527 9.35922 1.23299L6.98271 5.89842C6.81602 6.22567 6.52789 6.449 6.19947 6.5055L1.74573 7.27177C0.997695 7.40048 0.735304 8.47635 1.31787 9.02614L4.63572 12.1574C4.94284 12.4472 5.08725 12.9044 5.01264 13.3507L4.14474 18.5427C4.00754 19.3634 4.76391 20.0011 5.41288 19.6118L9.60664 17.0964C9.92583 16.905 10.3073 16.905 10.6265 17.0964L14.8203 19.6118C15.4693 20.0011 16.2256 19.3634 16.0884 18.5427L15.2205 13.3507C15.1459 12.9044 15.2903 12.4472 15.5975 12.1574L18.9153 9.02614C19.4979 8.47635 19.2355 7.40048 18.4874 7.27177L14.0337 6.5055C13.7053 6.449 13.4172 6.22567 13.2505 5.89842L10.874 1.23299Z" stroke="black" stroke-linejoin="round"/>
</svg>
