<svg width="20" height="21" viewBox="0 0 20 21" fill="none" xmlns="http://www.w3.org/2000/svg">
<path d="M10.7477 1.22964C10.4145 0.566928 9.58546 0.566925 9.25232 1.22964L6.9062 5.89681C6.74164 6.22419 6.4572 6.44759 6.13298 6.50412L1.7362 7.27068C0.997725 7.39943 0.738689 8.4757 1.3138 9.02571L4.58922 12.1581C4.89241 12.4481 5.03498 12.9055 4.96132 13.3519L4.10453 18.5458C3.96908 19.3668 4.71577 20.0048 5.35644 19.6154L9.49657 17.099C9.81168 16.9075 10.1883 16.9075 10.5034 17.099L14.6436 19.6154C15.2842 20.0048 16.0309 19.3668 15.8955 18.5458L15.0387 13.3519C14.965 12.9055 15.1076 12.4481 15.4108 12.1581L18.6862 9.02571C19.2613 8.4757 19.0023 7.39943 18.2638 7.27068L13.867 6.50412C13.5428 6.44759 13.2584 6.22419 13.0938 5.89681L10.7477 1.22964Z" fill="#F7F720" stroke="black" stroke-linejoin="round"/>
</svg>
